<svg id="builder" xmlns="http://www.w3.org/2000/svg" width="103.248" height="108.175" viewBox="0 0 103.248 108.175">
  <path id="Path_1" data-name="Path 1" d="M55.749,47.545a3.427,3.427,0,0,0-1.615,2.079l5.727-1.539A3.436,3.436,0,0,0,55.749,47.545Z" transform="translate(-30.87 -26.856)" fill="#fff"/>
  <path id="Path_2" data-name="Path 2" d="M148.991,15.939A2.377,2.377,0,0,1,147.7,17.5s0,0,0,0a11.267,11.267,0,0,1-9.409,11.173h3.29L182.11,17.784,182,17.379l-2.583-9.615Z" transform="translate(-78.862 -4.428)" fill="#fff"/>
  <path id="Path_3" data-name="Path 3" d="M121.309,40.692a9.887,9.887,0,0,0,9.8-9.753H111.506A9.888,9.888,0,0,0,121.309,40.692Zm0-2.779a7.164,7.164,0,0,1-6.119-3.489h12.237A7.164,7.164,0,0,1,121.309,37.913Z" transform="translate(-63.587 -17.643)" fill="#fff"/>
  <path id="Path_4" data-name="Path 4" d="M109.443,61.069c.625,3.238,1.9,8.742,3.518,10.122v5.767H102.5v2.149h10.457v4.441H102.5V85.7h10.457v4.3h-7.634a2.134,2.134,0,0,1-.336.423l2.063,6.48a3.265,3.265,0,0,1-2.118,4.1l-4.014,1.278L98.2,136.186a5.392,5.392,0,1,0,10.745.891l3.239-40.385h3.053l3.239,40.385a5.392,5.392,0,1,0,10.745-.891l-3.567-44.474h.33a.859.859,0,1,0,0-1.719H114.465V85.7h10.457V83.546H114.465V79.106h10.457V76.957H114.465V71.191c1.623-1.38,2.893-6.884,3.518-10.122a2.961,2.961,0,0,1,.845-1.555H108.6A2.96,2.96,0,0,1,109.443,61.069Z" transform="translate(-55.991 -33.938)" fill="#fff"/>
  <path id="Path_5" data-name="Path 5" d="M45.66,58.749l-.549,2.684a.859.859,0,0,0,.669,1.014.834.834,0,0,0,.151.015v.454l.112-.46a.857.857,0,0,0,.751-.679L49.4,49.025a.859.859,0,1,0-1.684-.345l-.1.505c-2.463.621-5.3,2.728-8.949,6.623l-.033.035c-.666.712-1.3,1.42-1.88,2.089L35.086,55l3.4-.914c3.144-3.24,5.721-5.156,8.058-5.97A2.139,2.139,0,0,1,49,46.749a2.126,2.126,0,0,1,1.285.829h5.733a11.181,11.181,0,0,1-8.483-6.663L0,53.685,2.583,63.3l.109.405,25.531-6.859,4.767,8.373a3.526,3.526,0,0,0,1.166,1.646,3.448,3.448,0,0,0,4.891-.649c1.17-1.548,2.45-3.078,3.707-4.47C43.762,60.63,44.751,59.611,45.66,58.749Z" transform="translate(0 -23.332)" fill="#fff"/>
  <path id="Path_6" data-name="Path 6" d="M155.437,58.575l-.1-.5a.859.859,0,1,0-1.684.345l2.61,12.753a.857.857,0,0,0,.751.679l.112.46v-.454a.833.833,0,0,0,.151-.015.851.851,0,0,0,.467-.272,43.182,43.182,0,0,1,1.659,8.927,6.051,6.051,0,0,0,2.384,4.309c1.979,1.532,4.9,1.942,7.46,1.942a28.8,28.8,0,0,0,4.884-.441c1.9-.339.689-7.325-1.209-6.987-.618.109-1.266.189-1.909.242l.418-2.249a.981.981,0,1,0-1.961-.043l-.432,2.288.013.081a9.015,9.015,0,0,1-2.755-.334c-.943-9.3-3.416-15.642-7.351-18.86A9.625,9.625,0,0,0,155.437,58.575Z" transform="translate(-87.61 -32.724)" fill="#fff"/>
  <path id="Path_7" data-name="Path 7" d="M109.065,12.221h20.226a1.3,1.3,0,0,0,0-2.594h-.179a9.93,9.93,0,0,0-4.332-7.949V2.47a1.026,1.026,0,1,1-2.052,0V.6A9.869,9.869,0,0,0,120.2,0V2.47a1.026,1.026,0,1,1-2.052,0V0a9.869,9.869,0,0,0-2.524.6V2.47a1.026,1.026,0,1,1-2.052,0V1.679a9.93,9.93,0,0,0-4.331,7.948h-.179a1.3,1.3,0,0,0,0,2.594Z" transform="translate(-61.456)" fill="#fff"/>
  <path id="Path_8" data-name="Path 8" d="M87.808,116.242l-1.98.782L87.7,121.78l2.033-.647Z" transform="translate(-48.944 -66.288)" fill="#fff"/>
  <path id="Path_9" data-name="Path 9" d="M95.879,116.852l-1.98.782,1.4,3.542,2.033-.647Z" transform="translate(-53.546 -66.636)" fill="#fff"/>
  <path id="Path_10" data-name="Path 10" d="M100.489,141.7a2.187,2.187,0,0,0,1.42-2.747l-1.993-6.258-8.96,2.853,1.993,6.258a2.187,2.187,0,0,0,2.747,1.42ZM98.8,135.8a.863.863,0,1,1,.942-.777A.863.863,0,0,1,98.8,135.8Z" transform="translate(-51.869 -75.67)" fill="#fff"/>
  <path id="Path_11" data-name="Path 11" d="M88.081,130.395l9.2-2.928a1.065,1.065,0,0,0-.646-2.029l-9.2,2.928a1.065,1.065,0,1,0,.646,2.029Z" transform="translate(-49.438 -71.503)" fill="#fff"/>
</svg>
