<svg id="dronepilot" xmlns="http://www.w3.org/2000/svg" width="94.832" height="101.732" viewBox="0 0 94.832 101.732">
  <path id="Path_12" data-name="Path 12" d="M63.318,124.881,61.961,108.86A10.593,10.593,0,1,0,73.894,92.48c-.089.455-.184.936-.284,1.431a9.154,9.154,0,1,1-4.141-.523c.022-.491.045-.979.069-1.458a10.612,10.612,0,0,0-8.53,5.692l-.683-8.057A10.574,10.574,0,0,0,63.8,84.7c-.455-.089-.936-.184-1.431-.284a9.154,9.154,0,1,1,.523-4.141c.491.022.979.045,1.458.069a10.61,10.61,0,0,0-5.031-8.154V59.9c.1.1.194.211.293.325q.426.491.881,1.109c2.746,3.746,6.139,11.2,8.3,25.991a3.439,3.439,0,0,0,3.4,2.942,3.476,3.476,0,0,0,.5-.037,3.438,3.438,0,0,0,2.905-3.9c-2.1-14.4-5.694-24.65-10.68-30.484-.037-.043-.073-.088-.11-.13-3.477-4.007-6.732-4.832-8.295-4.979A3.349,3.349,0,0,0,56,50.7H39.4c-.051,0-.1.005-.151.008-2.41.032-9.738,1.456-12.193,17.186-.447.778-2.461,1.785-5.07,2.659L21.371,74.7a2.178,2.178,0,0,1-2.015,2.25H13.062a3.441,3.441,0,0,0,3.121,2,3.5,3.5,0,0,0,.552-.044,53.38,53.38,0,0,0,7.379-1.823c6.013-1.99,9.194-4.624,9.723-8.055a28.082,28.082,0,0,1,2.241-7.959V77.747l-3.994,47.135a5.313,5.313,0,0,0,10.589.9l3.181-37.547a10.573,10.573,0,0,0,3.93,2.8l2.945,34.75a5.314,5.314,0,0,0,10.589-.9Z" transform="translate(-7.449 -28.912)" fill="#fff"/>
  <ellipse id="Ellipse_1" data-name="Ellipse 1" cx="9.669" cy="9.669" rx="9.669" ry="9.669" transform="translate(30.583)" fill="#fff"/>
  <path id="Path_13" data-name="Path 13" d="M148.135,59.9a9.151,9.151,0,0,1-.161,18.185c-.022.491-.045.979-.069,1.458a10.594,10.594,0,1,0-8.653-17.756q.415.6.816,1.254A9.151,9.151,0,0,1,148.135,59.9Z" transform="translate(-79.41 -33.296)" fill="#fff"/>
  <path id="Path_14" data-name="Path 14" d="M161.77,82.519c-.013.108-.062.408-.137.841a20.087,20.087,0,0,0,3.646.8c2.021.248,2.544-.079,2.6-.553s-.37-.917-2.392-1.164a20.14,20.14,0,0,0-3.715-.1A1.683,1.683,0,0,1,161.77,82.519Z" transform="translate(-92.172 -46.929)" fill="#fff"/>
  <path id="Path_15" data-name="Path 15" d="M149.222,81.458c.032-.446.058-.754.071-.864.008-.066.029-.127.043-.19a19.329,19.329,0,0,0-2.639-.634q.375.834.734,1.716A17.037,17.037,0,0,0,149.222,81.458Z" transform="translate(-83.655 -45.489)" fill="#fff"/>
  <path id="Path_16" data-name="Path 16" d="M157.155,69.974a1.963,1.963,0,0,1,.592.178,20.914,20.914,0,0,0,.705-3.353c.248-2.022-.079-2.544-.553-2.6s-.917.37-1.164,2.392a20.954,20.954,0,0,0-.126,3.4A1.945,1.945,0,0,1,157.155,69.974Z" transform="translate(-89.294 -36.606)" fill="#fff"/>
  <path id="Path_17" data-name="Path 17" d="M151.072,171.364c-.008.066-.029.127-.043.19a20.379,20.379,0,0,0,3.562.772c2.022.248,2.544-.079,2.6-.553s-.37-.917-2.392-1.164a20.3,20.3,0,0,0-3.658-.109C151.111,170.947,151.086,171.256,151.072,171.364Z" transform="translate(-86.125 -97.207)" fill="#fff"/>
  <path id="Path_18" data-name="Path 18" d="M133.8,169.144c.013-.108.062-.408.137-.841a20.089,20.089,0,0,0-3.646-.8c-2.022-.248-2.544.079-2.6.553s.37.917,2.392,1.164a20.139,20.139,0,0,0,3.715.1A1.685,1.685,0,0,1,133.8,169.144Z" transform="translate(-72.814 -95.472)" fill="#fff"/>
  <path id="Path_19" data-name="Path 19" d="M144.124,176.37a1.963,1.963,0,0,1-.592-.178,20.912,20.912,0,0,0-.705,3.353c-.248,2.021.079,2.544.553,2.6s.917-.37,1.164-2.392a20.954,20.954,0,0,0,.126-3.4A1.978,1.978,0,0,1,144.124,176.37Z" transform="translate(-81.4 -100.475)" fill="#fff"/>
  <path id="Path_20" data-name="Path 20" d="M183.12,109.382a9.152,9.152,0,1,1-10.213,10.036c-.491-.022-.979-.045-1.458-.069a10.6,10.6,0,1,0,.551-4.356c.455.089.936.184,1.431.284A9.165,9.165,0,0,1,183.12,109.382Z" transform="translate(-97.77 -61.515)" fill="#fff"/>
  <path id="Path_21" data-name="Path 21" d="M193.951,136.963c-.108-.013-.408-.062-.841-.137a20.089,20.089,0,0,0-.8,3.646c-.248,2.021.079,2.544.553,2.6s.917-.37,1.164-2.392a20.138,20.138,0,0,0,.1-3.715C194.072,136.965,194.012,136.97,193.951,136.963Z" transform="translate(-109.618 -78.026)" fill="#fff"/>
  <path id="Path_22" data-name="Path 22" d="M196.172,119.8c.066.008.127.029.19.043a20.376,20.376,0,0,0,.772-3.562c.248-2.021-.079-2.544-.553-2.6s-.917.37-1.164,2.392a20.3,20.3,0,0,0-.109,3.658C195.755,119.762,196.063,119.788,196.172,119.8Z" transform="translate(-111.354 -64.824)" fill="#fff"/>
  <path id="Path_23" data-name="Path 23" d="M201.177,132.347a1.96,1.96,0,0,1-.178.591,20.91,20.91,0,0,0,3.353.705c2.021.248,2.544-.079,2.6-.553s-.37-.917-2.392-1.164a20.95,20.95,0,0,0-3.4-.126A1.948,1.948,0,0,1,201.177,132.347Z" transform="translate(-114.621 -75.147)" fill="#fff"/>
  <path id="Path_24" data-name="Path 24" d="M105.969,126.336c-.446-.032-.755-.058-.864-.071-.066-.008-.127-.029-.19-.043a20.379,20.379,0,0,0-.772,3.562c-.248,2.021.079,2.544.553,2.6s.917-.37,1.164-2.392A20.311,20.311,0,0,0,105.969,126.336Z" transform="translate(-59.34 -71.979)" fill="#fff"/>
  <path id="Path_25" data-name="Path 25" d="M107.327,108.992c.108.013.408.062.841.137a20.087,20.087,0,0,0,.8-3.646c.248-2.022-.079-2.544-.553-2.6s-.917.37-1.164,2.392a20.139,20.139,0,0,0-.1,3.715A1.685,1.685,0,0,1,107.327,108.992Z" transform="translate(-61.076 -58.667)" fill="#fff"/>
  <path id="Path_26" data-name="Path 26" d="M94.8,119.863a1.8,1.8,0,0,1,.161-1.138,20.911,20.911,0,0,0-3.353-.705c-2.022-.248-2.544.079-2.6.553s.37.917,2.392,1.164A20.948,20.948,0,0,0,94.8,119.863Z" transform="translate(-50.753 -67.253)" fill="#fff"/>
  <path id="Path_27" data-name="Path 27" d="M110.309,119.489c-2.368-.48-4.554-.862-4.873-.9a1.348,1.348,0,0,0-.327,2.676c.32.039,2.532.2,4.947.3,3.126.733,7.027,1.473,9.19,1.857q-.313-1.882-.652-3.588C116.325,119.693,113.044,119.526,110.309,119.489Z" transform="translate(-59.264 -67.62)" fill="#fff"/>
  <path id="Path_28" data-name="Path 28" d="M146.511,144.365h0a4.326,4.326,0,0,1-1.942-.463c-.121,2.13-.241,4.771-.271,7.037-.48,2.368-.862,4.554-.9,4.873a1.348,1.348,0,0,0,2.676.327c.039-.32.2-2.532.3-4.947.529-2.257,1.062-4.918,1.462-7.038a4.4,4.4,0,0,1-.688.163A4.347,4.347,0,0,1,146.511,144.365Z" transform="translate(-81.767 -82.061)" fill="#fff"/>
  <path id="Path_29" data-name="Path 29" d="M159.048,123.456a4.375,4.375,0,0,1,.009,1.165,5.374,5.374,0,0,0,1.052-1.476c2.187.15,6.171.374,9.392.417,2.368.48,4.554.862,4.873.9a1.348,1.348,0,0,0,.327-2.676c-.32-.039-2.532-.2-4.947-.3-3.149-.738-7.088-1.485-9.24-1.866a5.4,5.4,0,0,0-2.759-3.587Q158.475,119.545,159.048,123.456Z" transform="translate(-89.962 -66.169)" fill="#fff"/>
  <path id="Path_30" data-name="Path 30" d="M156.117,80.628a1.348,1.348,0,0,0-2.676-.327c-.039.32-.2,2.532-.3,4.947-.1.419-.2.853-.294,1.294q1.1,3.619,1.988,7.842c.147-2.257.343-5.9.383-8.881C155.7,83.133,156.078,80.948,156.117,80.628Z" transform="translate(-87.161 -45.117)" fill="#fff"/>
  <path id="Path_31" data-name="Path 31" d="M11.908,68.369a1.26,1.26,0,0,0,1.07-1.381l1.2-8.119a1.293,1.293,0,0,0-1.289-1.289H9.938v-.7H8.353v-1.1H7.52V37.31H6.661V55.78H5.828v1.1H4.244v.7H1.289A1.293,1.293,0,0,0,0,58.869l1.2,8.119a1.26,1.26,0,0,0,1.07,1.381Zm-1.835-2.334H4.11v-.416h5.963Zm.206-6.428a1.97,1.97,0,1,1-1.97,1.97A1.97,1.97,0,0,1,10.278,59.607Zm-8.344,1.97a1.97,1.97,0,1,1,1.97,1.97A1.97,1.97,0,0,1,1.934,61.577Zm2.176,4.9h5.963v.416H4.11Z" transform="translate(0 -21.276)" fill="#fff"/>
  <rect id="Rectangle_1" data-name="Rectangle 1" width="0.806" height="2.954" transform="translate(3.501 38.823)" fill="#fff"/>
  <rect id="Rectangle_2" data-name="Rectangle 2" width="2.954" height="0.806" transform="translate(8.801 39.898)" fill="#fff"/>
</svg>
