<svg id="engineer" xmlns="http://www.w3.org/2000/svg" width="52.146" height="106.725" viewBox="0 0 52.146 106.725">
  <path id="Path_32" data-name="Path 32" d="M48.835,31.938a9.669,9.669,0,1,0,19.249-1.3H48.924A9.76,9.76,0,0,0,48.835,31.938Z" transform="translate(-27.849 -17.472)" fill="#fff"/>
  <path id="Path_33" data-name="Path 33" d="M50.937,2.47V1.679a9.93,9.93,0,0,0-4.331,7.948h-.18a1.3,1.3,0,0,0,0,2.594H66.652a1.3,1.3,0,0,0,0-2.594h-.179a9.93,9.93,0,0,0-4.332-7.949V2.47a1.026,1.026,0,1,1-2.052,0V.6A9.851,9.851,0,0,0,57.565,0V2.47a1.026,1.026,0,1,1-2.052,0V0a9.866,9.866,0,0,0-2.524.6V2.47a1.026,1.026,0,1,1-2.052,0Z" transform="translate(-25.736)" fill="#fff"/>
  <path id="Path_34" data-name="Path 34" d="M8.772,140.167,1.158,150.991l.006.005a1.71,1.71,0,0,0-.2,1.277l7.975-8.249C8.863,142.7,8.81,141.421,8.772,140.167Z" transform="translate(-0.526 -79.931)" fill="#fff"/>
  <path id="Path_35" data-name="Path 35" d="M49.176,96.463a3.193,3.193,0,0,1,1.61-.838,4.593,4.593,0,0,1,2.361.2c.593-1.394-.245-3.444-2.079-4.847-2.047-1.568-4.554-1.731-5.6-.367L40.134,98.2a78.565,78.565,0,0,0-.476,8.111Zm1.651-5.232c1.3.993,1.881,2.406,1.307,3.156s-2.092.555-3.389-.437-1.881-2.406-1.307-3.157S49.53,90.239,50.828,91.231Zm-4.33.431a1.08,1.08,0,0,1,.453-.326c-.478.768.107,2.117,1.359,3.075a3.239,3.239,0,0,0,2.937.763c-.017.027-.032.056-.052.082-.575.751-2.092.554-3.389-.438S45.923,92.413,46.5,91.662Z" transform="translate(-22.615 -51.144)" fill="#fff"/>
  <path id="Path_36" data-name="Path 36" d="M1.118,137.536c1.15,1.2,2.719,1.583,3.569.884l.006.006,28.995-25.518c1.244-1.187.809-3.661-.972-5.526s-4.231-2.415-5.475-1.229l-10.2,10.556c0,2.274.075,4.762.235,7.5a4.426,4.426,0,0,1-4.161,4.677c-.087.005-.174.008-.261.008h0a4.427,4.427,0,0,1-4.3-3.4L.4,133.923l.005.006C-.336,134.745-.033,136.33,1.118,137.536Zm27.974-30.979c.7-.633,2.158-.162,3.251,1.051s1.409,2.71.707,3.343-2.159.162-3.251-1.052S28.39,107.19,29.092,106.557Zm-.558.43c-.634.659-.315,2.1.751,3.286a3.29,3.29,0,0,0,2.724,1.3c-.017.017-.026.04-.044.056-.7.633-2.158.162-3.251-1.052s-1.408-2.71-.706-3.343A1.079,1.079,0,0,1,28.534,106.987Z" transform="translate(0 -60.178)" fill="#fff"/>
  <path id="Path_37" data-name="Path 37" d="M21.585,99.762A3.438,3.438,0,0,0,25.013,103c.067,0,.136,0,.2-.006a3.439,3.439,0,0,0,3.232-3.633,95.483,95.483,0,0,1,.4-18.353A30.074,30.074,0,0,1,31.2,72.214v6.47l3.118-4.435a3.238,3.238,0,0,1,1.98-1.2,6,6,0,0,1,4.325,1.021l.469-3.454a4.928,4.928,0,0,0,1.731.318h0a4.925,4.925,0,0,0,1.728-.318l1.619,11.937a6.636,6.636,0,0,1,1.26,2.786,3.657,3.657,0,0,1-.927,3.356l-.648.57L42.819,93.1l-.543-.685L31.2,102.163v34.526a5.313,5.313,0,0,0,10.627,0V97.9h1.992v38.793a5.313,5.313,0,0,0,10.627,0V72.215c1.921,4,3.632,12.045,2.749,27.145a3.438,3.438,0,0,0,3.232,3.633c.068,0,.136.006.2.006a3.439,3.439,0,0,0,3.429-3.237c1.062-18.156-1.209-30-6.749-35.207a9.07,9.07,0,0,0-5.981-2.684c-.068,0-.135-.01-.2-.01h-16.6c-.07,0-.14.006-.209.011a9.073,9.073,0,0,0-5.976,2.683c-3.327,3.126-5.473,8.647-6.428,16.488A106.125,106.125,0,0,0,21.585,99.762Zm19.6-34.384h3.266l.817,3.223-.124.2a3.63,3.63,0,0,1-4.65,0l-.125-.2Z" transform="translate(-12.164 -35.277)" fill="#fff"/>
</svg>
