<svg id="forest" xmlns="http://www.w3.org/2000/svg" width="127.413" height="106.725" viewBox="0 0 127.413 106.725">
  <path id="Path_38" data-name="Path 38" d="M235.769,111.907c-.046.012-.021.025,0,0Z" transform="translate(-134.434 -63.816)" fill="#fff"/>
  <path id="Path_39" data-name="Path 39" d="M235.678,111.4a.419.419,0,0,0-.024-.06C235.555,111.149,235.585,111.331,235.678,111.4Z" transform="translate(-134.349 -63.445)" fill="#fff"/>
  <path id="Path_40" data-name="Path 40" d="M173.825,92.375c-.211-.245.036-.459-.176-.7s-.443-.046-.655-.292-.121-.324-.333-.569.018-.444-.194-.689-.428-.057-.639-.3-.261-.2-.472-.447-.129-.318-.341-.563.184-.587-.028-.832-1.07.5-1.281.251.538-.895.326-1.141-.923.367-1.135.122-.17-.283-.382-.528-.28-.188-.493-.434.021-.448-.191-.694-.043-.393-.256-.639-.569.061-.783-.186a.7.7,0,0,1-.063-.807c.126-.294.318-.23.637-.23s.319.768.638.768.32-.477.64-.477.32.026.639.026.32.034.64.034.321-.332.641-.332.32-.04.64-.04.321.092.642.092.321.094.643.094,1.01.561,1.131.263-1.016-.184-1.235-.437-.22-.251-.439-.5,0-.44-.218-.693-.39-.1-.609-.358.025-.462-.194-.716-.583.062-.8-.19.3-.7.079-.948-.421-.076-.639-.328-.033-.414-.251-.667-.346-.142-.564-.4-.668.135-.886-.117.278-.683.06-.936-.417-.082-.635-.335.036-.474-.183-.727-.652.12-.871-.134-.092-.362-.312-.615.064-.5-.155-.752.1-.528-.122-.782-1.4-.089-1.248-.391.774.016,1.117.016.344.44.688.44.345-.063.689-.063.344-.1.688-.1.345.227.689.227.346-.887.691-.887,1.053,1.161,1.214.855c.153-.291-.751-.512-.966-.761s.19-.6-.025-.848-.646.123-.862-.126-.488-.012-.7-.261.227-.63.012-.879-.443-.052-.658-.3.277-.673.062-.922-.545.036-.76-.214.131-.547-.084-.8-.29-.185-.5-.434-.306-.171-.522-.42-.612.095-.828-.154-.129-.321-.343-.569.147-.561-.067-.809-.242-.227-.457-.476-.05-.391-.265-.64-.435-.059-.65-.308-.553.042-.768-.208-.027-.412-.242-.661-.25-.22-.465-.47.172-.585-.044-.835-1,.428-1.214.178-.019-.42-.235-.67.123-.544-.093-.795-.273-.187-.6-.188.01.276-.2.524-.664-.139-.879.11.254.654.039.9.02.452-.2.7-.747-.211-.961.037-.59-.075-.8.173.275.672.06.922-.493.009-.709.258-.307.169-.522.418.3.693.083.942-.749-.212-.964.037-.057.385-.272.635-.257.211-.471.459-.292.181-.506.429-.134.32-.35.57-.011.424-.226.673-.29.184-.506.432.167.58-.049.83-.179.281-.394.53-.929-.367-1.144-.116-.169.29-.385.54.36.746.144,1-.346.138-.561.388-.031.41-.248.661c-.073.084-.135.073-.183.036.025.072.02.113.005.132a.536.536,0,0,1,.132-.012c.344,0,.344.69.688.69s.345-.557.689-.557.344.386.688.386.345-.309.689-.309.346-.664.691-.664.812.093.966.4-.1.728-.323.981-.63-.1-.848.151-.153.309-.371.561-.661-.13-.88.123.374.764.155,1.017-.242.232-.46.485-.448.052-.665.3-.5.012-.713.265.083.514-.135.767-.028.417-.246.67-.207.263-.425.515-.45.055-.669.308.023.462-.2.715-.476.031-.695.284-.518,0-.737.25-.1.352-.322.606.267.674.048.928a.944.944,0,0,1-.13.127c-.149-.148-.27-.08-.425-.271-.169-.208-.107-.258-.276-.467s.182-.493.012-.7-.112-.255-.281-.464-.061-.3-.229-.5-.06-.3-.229-.506-.529.083-.7-.125-.173-.2-.342-.413.07-.4-.1-.609-.107-.258-.276-.466-.879.366-1.049.157-.336-.073-.5-.281.362-.639.193-.847-.047-.309-.217-.517-.028-.323-.2-.532-.44.011-.61-.2-.221-.167-.389-.375.068-.4-.1-.612-.908.388-1.079.179-.263-.135-.433-.346c-.15-.185.462-.367.682-.578a.145.145,0,0,0,.068.013c.259,0,.259-.071.518-.071s.26-.276.52-.276.259-.061.517-.061.26-.521.519-.521.26.553.518.553.259-.018.518-.018.26.421.52.421.26.3.519.3.26-.668.52-.668.26.594.52.594.26-.6.52-.6.26-.612.52-.612h.05c-.039-.242.578-.769.422-.96-.168-.207-.927.407-1.095.2s.734-.938.566-1.144-.37-.044-.538-.251.024-.364-.144-.571-1.177.609-1.345.4.7-.911.532-1.119-.85.346-1.018.138.187-.5.02-.7-.261-.133-.429-.34.368-.643.2-.851-1.192.622-1.36.415.094-.421-.074-.628.161-.474-.008-.682-.182-.2-.35-.4.258-.552.09-.759-.458.028-.626-.179-.656.187-.825-.021-.067-.29-.236-.5.356-.633.188-.84-.712.232-.881.023.511-.758.342-.966-1.016.478-1.185.27.233-.532.065-.74.391-.662.222-.871-1.406.793-1.575.584.132-.453-.038-.663.16-.287.273-.532-.035-.831.231-.831.266.635.532.635.266-.244.531-.244.267.768.533.768.266-.025.532-.025.266-1.147.533-1.147.267.553.533.553.266.431.533.431.267-.433.534-.433.268.9.535.9.474-.483.591-.723-.49-.018-.658-.224-.291-.105-.459-.312.3-.586.135-.792-.357-.052-.524-.258.07-.4-.1-.6-.74.258-.906.052.588-.818.421-1.025-.391-.025-.559-.232-.719.239-.886.032.5-.752.336-.959-.575.123-.743-.083-.3-.1-.463-.309.756-.955.589-1.162-.513.073-.68-.133-.339-.067-.507-.274-.079-.279-.247-.486-.344-.064-.511-.272-.727.246-.895.039.274-.564.106-.771.365-.638.2-.845-.27-.125-.438-.332-.192-.187-.361-.395-.24-.148-.408-.355-.969.442-1.137.235.721-.928.553-1.135-.127-.239-.295-.446-.278-.116-.446-.323-.424,0-.592-.2-.01-.336-.179-.544-.07-.287-.237-.493-.664.195-.832-.012.1-.424-.07-.633.271-.563.1-.771-.32-.085-.489-.293-.8.3-.963.1-.175-.2-.344-.411.319-.6.151-.812-.663.191-.832-.018.293-.7.024-.7-.093.254-.26.461.057.388-.11.594-.076.28-.242.487-.879-.371-1.046-.165-.431-.007-.6.2.794.985.627,1.191-.5-.062-.665.144-.128.239-.3.445.263.556.1.763-.18.2-.348.4-.684-.211-.851,0-.221.163-.389.37-.166.207-.333.414-.236.151-.4.358.376.647.208.853-1.11-.557-1.278-.349.406.672.238.879-.44-.014-.608.193-.143.226-.311.434-.3.1-.472.3-.089.271-.257.478.027.365-.141.572-.419,0-.587.211.248.544.08.751.045.38-.122.587-.488-.053-.655.154-.482-.049-.649.157.668.884.5,1.091-1.109-.554-1.277-.347.315.6.147.8.221.523.053.73-.511-.07-.679.138-.348.062-.516.269-.2.186-.364.394.12.44-.047.647-.725-.242-.893-.034-.073.286-.242.494-.4.018-.574.227a1.119,1.119,0,0,0-.063.951c.112.242.509-.7.775-.7s.266.655.532.655.266-.682.532-.682.266.952.533.952.266-.928.532-.928.267-.131.533-.131.267.813.534.813.266,0,.533,0,.267.122.534.122.267.369.535.369c0,0,.007,0,.011,0,.172.234.369.479.278.593-.168.207-1.1-.551-1.271-.344s.489.74.321.947-.47-.038-.638.169.237.535.069.743.078.407-.091.615-.295.105-.463.313-.376.039-.545.246-.821-.321-.989-.114-.3.1-.468.309.661.88.492,1.088-.444-.016-.613.192-.377.038-.545.246.718.925.549,1.133-1.05-.507-1.219-.3-.175.2-.343.409-.294.1-.461.312-.278.118-.446.325.554.793.385,1-.053.3-.221.509-.961-.435-1.13-.227.172.484,0,.693-.19.19-.359.4.072.4-.1.612-.752-.266-.92-.058.775.974.606,1.183-.835-.331-1-.122-.5-.056-.667.153a1.376,1.376,0,0,0-.2,1.033c.1.239.661-.763.921-.763s.259.988.518.988.26.345.52.345.258-.352.517-.352.26-1.134.519-1.134.26,1.15.518,1.15.259-.872.518-.872.26.315.52.315.26-.608.519-.608.26.231.52.231.26-.146.52-.146.26.48.52.48.26.343.52.343.261-.577.522-.577-.287.5-.182.738.979.258.811.466-.736-.252-.9-.044-.181.2-.35.405.225.527.057.735-.124.244-.292.453.008.352-.162.56-.752-.264-.922-.056.4.666.226.874-.546-.1-.714.11-.421,0-.59.212.609.839.44,1.048-1.343-.742-1.512-.533.2.5.028.713-.419.006-.588.215-.207.178-.376.387.525.77.356.977-.875-.364-1.043-.156-.245.146-.414.353.075.407-.095.617c-.1.12.02.3.1.47-.193-.114-.414.014-.6-.2-.214-.255-.139-.317-.352-.572s.06-.484-.153-.739.071-.494-.143-.749-.955.366-1.168.111-.276-.2-.49-.458.052-.476-.161-.731-.467-.043-.681-.3.291-.678.078-.933-.219-.251-.432-.505-.065-.38-.279-.636-.819.251-1.033,0,.118-.533-.1-.789.1-.52-.114-.776-.2-.27-.41-.526-.58.05-.794-.206-.095-.357-.31-.614-1.006-.321-.873-.628.709.575,1.034.575.325-.274.65-.274.325.172.651.172.326-.074.652-.074.325.061.651.061.326.3.652.3.327-.5.654-.5.394.138.536-.156-.415.081-.622-.166-.38-.1-.587-.349-.088-.347-.3-.594.656-.97.449-1.217-.447-.047-.654-.3-.657.128-.865-.119-.451-.044-.658-.292.726-1.029.518-1.277-.267-.2-.475-.445-.656.128-.864-.12-.639.113-.847-.135-.263-.2-.471-.449.309-.68.1-.928.3-.675.094-.924-1.252.627-1.46.379-.152-.293-.359-.54.316-.686.11-.933-.439-.055-.647-.3.016-.435-.192-.683.237-.62.029-.868-.545.034-.753-.215-.649.121-.857-.128.146-.545-.062-.794-.52.012-.728-.237-.437-.057-.645-.305.385-.746.177-1-.548.034-.757-.215.133-1.025-.193-1.026a1.183,1.183,0,0,0-.835.484c-.207.247.354.717.147.964s-.292.176-.5.423.105.51-.1.757-.579-.063-.786.185-.725-.186-.933.063.625.945.418,1.193-.517-.012-.725.236-.52-.014-.727.233-.144.3-.352.549.085.493-.123.741-.7-.168-.912.08.327.695.119.943-.533-.025-.741.223.538.872.33,1.12-.642-.118-.849.129c-.194.231-.368.115-.56.3A79.95,79.95,0,0,1,92.9,82.341c0,2.63-.087,5.451-.258,8.386a6,6,0,0,1-2.006,4.134.69.69,0,0,0,.281.052c.33,0,.33.032.661.032s.33-.633.661-.633.33.883.661.883.33.064.661.064.331-.15.661-.15.33-.23.659-.23.33-.3.659-.3.33.111.66.111c.27,0,.322.027.511.037v9.964a.074.074,0,0,1-.038.019c-.174,0-.174.016-.348.016s-.174-.891-.347-.891-.174-.122-.348-.122-.174,1.155-.348,1.155-.174-1.535-.348-1.535-.174,1.6-.348,1.6-.174.04-.348.04-.174-.645-.348-.645-.174-.962-.348-.962-.174,1.121-.348,1.121-.174-1.251-.348-1.251-.174,1.475-.348,1.475-.174.051-.348.051-.174.172-.347.172-.174-.052-.347-.052-.174-1.2-.348-1.2-.173,1.33-.347,1.33-.174.034-.348.034-.174-.013-.347-.013c-.155,0-.172-.768-.3-.928v-4.64H87.99v5.427c-.173,0-.173-.444-.346-.444s-.173-.408-.347-.408-.173-.491-.347-.491-.174-.165-.347-.165-.173.937-.347.937-.173.67-.347.67-.174-.939-.347-.939-.173.127-.347.127-.173.709-.347.709-.174-1.6-.347-1.6-.173.81-.347.81-.173.294-.347.294-.174-.914-.347-.914-.173,1.537-.347,1.537c-.041,0-.072-.073-.1-.181v4.005h89.733v-2.716c.234-.037.427-.08.427-.152,0-.181-1.143-.181-1.143-.362s-.3-.18-.3-.36.184-.18.184-.361,1.19-.181,1.19-.361-.547-.172-.673-.3-.115-.032-.292-.032-.177.594-.354.594-.176-.8-.352-.8-.176.324-.352.324-.175-.489-.35-.489-.175,1.257-.351,1.257-.175-.384-.351-.384-.176-.827-.352-.827-.175.476-.35.476-.175-.94-.35-.94-.176.692-.351.692-.174-.3-.349-.3-.174,1.272-.349,1.272-.175-1.69-.35-1.69-.175.922-.351.922-.174.263-.35.263-.174.213-.348.213c-.049,0-.085-.112-.115-.269v-4.8h-1.956v3.807a.2.2,0,0,0-.031-.006c-.175,0-.175,1.453-.35,1.453s-.175-.3-.349-.3-.174-1.125-.349-1.125-.174.737-.35.737-.174-.67-.349-.67-.175.606-.35.606-.175.731-.35.731-.174-.281-.35-.281-.175-.319-.349-.319-.174-.535-.349-.535-.174.638-.349.638H160.6V92.867a.584.584,0,0,1,.25-.049c.331,0,.331.509.661.509s.331-.249.662-.249.332-.264.663-.264.331.38.663.38.331-.467.662-.467.331.694.663.694.332-.563.664-.563.331.6.663.6.332-.209.664-.209.332.548.664.548.332-.991.664-.991.331.4.662.4.33-.581.662-.581.332.379.664.379.331-.081.663-.081.332-.258.664-.258.332.622.664.622.332-.422.664-.422.333.579.665.579.291.1.621.149c.19.025.174-.229.322-.528s.52-.349.308-.594S174.036,92.62,173.825,92.375Zm-27.9-8.829c.32,0,.32-.085.64-.085s.32.416.639.416.32.528.64.528.321-.517.641-.517.32-.26.64-.26.321.587.642.587.321-.157.643-.157.984-.642,1.115-.348-.83.33-1.042.575-.51-.012-.722.234-.091.35-.3.6-.031.4-.242.648-.489.006-.7.252a.151.151,0,0,0-.023.068c-.06-.061-.115-.116-.152-.163-.168-.208-.754.267-.923.059s.722-.929.553-1.137-.357-.055-.526-.263-.422,0-.591-.211-.3-.105-.465-.314-.6.144-.773-.065a.263.263,0,0,1-.015-.269A.412.412,0,0,1,145.923,83.546Zm2.908,3.3c.061.128.091.242.027.316-.091.105-.284.043-.491-.042A1.056,1.056,0,0,0,148.832,86.849Zm-17.388-.89c.264,0,.264-.048.529-.048s.265.423.53.423.265-.309.53-.309.265.664.53.664.265.509.529.509.264-.254.529-.254.264-1.152.529-1.152.265.527.529.527.265.282.53.282.265-.462.531-.462.265.192.53.192.265.1.53.1.265.344.53.344.265-.355.531-.355.265.791.53.791.265-.851.53-.851.265.1.53.1.266-.327.531-.327.265,1.195.53,1.195.266-.03.531-.03.265-1.037.529-1.037.266-.291.531-.291.265.413.53.413.265.354.53.354.266.342.532.342.266-.681.531-.681.266.729.532.729.266-.076.532-.076.266-.385.532-.385.266-.074.532-.074c.24,0,.121.362.278.5-.052.254.332.63.146.847-.212.245-.183.272-.395.517s-.02.411-.232.656-.309.162-.52.407-.444.046-.657.292-.476.018-.688.264.23.627.018.873-.532-.03-.745.216.328.712.115.958-.2.255-.416.5-.7-.175-.916.072-.15.095-.009.388-.015.416.315.416.331-.325.662-.325.331-.274.662-.274.331.935.661.935.331-1.181.662-1.181.331.813.661.813.331-.706.662-.706.331-.018.663-.018.331.634.662.634.331-.731.662-.731.331.394.662.394.331-.23.662-.23.331-.183.662-.183.331,1.066.663,1.066.331-.545.662-.545.33.727.66.727.33-.368.661-.368.331-.342.662-.342.331.566.663.566.331.139.661.139.331-.413.661-.413a.343.343,0,0,0,.283-.179v10.766a.086.086,0,0,1-.044.016c-.174,0-.174.572-.348.572s-.174-.272-.348-.272-.174-.694-.348-.694-.174.582-.348.582-.174.777-.347.777-.173-1.311-.347-1.311-.174-.33-.348-.33-.174.371-.348.371-.174.123-.348.123-.174.141-.349.141-.174-.258-.349-.258-.174.742-.349.742-.174.333-.349.333-.174-.976-.349-.976-.174,1.116-.349,1.116-.174-.728-.349-.728-.174-.97-.349-.97-.174.139-.349.139-.174,1.37-.349,1.37-.174-1.4-.349-1.4-.174.228-.348.228-.174,1.057-.349,1.057-.174-.37-.349-.37-.174-.364-.349-.364-.174.214-.349.214-.174.861-.349.861-.174-1.722-.349-1.722-.174.517-.349.517-.174.706-.349.706-.174-.769-.349-.769-.174.152-.349.152-.174-.352-.349-.352-.174-.248-.349-.248-.174,1.156-.349,1.156-.174.484-.349.484c-.074,0-.116-.122-.153-.261V97.315h-2.707v7.52c-.106-.386-.13-1.551-.276-1.551-.174,0-.174,1.755-.349,1.755s-.174-.037-.349-.037-.174-1.553-.349-1.553-.174,1.208-.349,1.208-.174.214-.349.214-.174-.86-.348-.86-.174.063-.349.063-.174.48-.348.48-.174-.783-.348-.783-.174,1.279-.348,1.279-.174-1.568-.348-1.568-.174,1.552-.348,1.552-.174-.2-.348-.2-.174.008-.348.008-.174-1.33-.348-1.33-.174.5-.348.5-.174.727-.348.727-.174-.4-.348-.4-.174-.959-.348-.959-.174.132-.348.132-.174.053-.348.053-.174-.176-.348-.176-.174.168-.349.168-.174.344-.349.344-.174.056-.349.056-.174-.13-.349-.13-.174.773-.349.773-.174-1.328-.349-1.328-.174,1.619-.349,1.619-.174-1.129-.348-1.129a.39.39,0,0,1-.061-.006V86.072C131.332,86,131.38,85.959,131.443,85.959Zm-9.82-23.864c.034-.1.062-.149.106-.058S121.717,62.124,121.623,62.095Zm-9.878,21.567c.256,0,.306.483.484.665a.315.315,0,0,1-.022.037c-.17.209-.509-.066-.679.143a.2.2,0,0,1-.188.058C111.462,84.213,111.53,83.662,111.744,83.662ZM101.493,94.823c.33,0,.33-.262.661-.262s.33-.555.66-.555.331.33.661.33.331.489.662.489.331.2.661.2.33-1.109.661-1.109.33.829.661.829.331.5.662.5.331-1.126.661-1.126.331.532.662.532.331.368.662.368.331-.038.663-.038.33-.556.661-.556.33-.124.661-.124.331.551.663.551.331.083.662.083.332.32.663.32.332-1.214.664-1.214.331.729.662.729.332-.4.664-.4.335.177.661.242c.272.055.33.182.48-.115s.491-.577.284-.824-.746.2-.953-.043.286-.661.079-.908-.945.37-1.153.123.4-.754.19-1-.929.356-1.136.109.061-.472-.147-.72-.462-.034-.67-.281-.077-.355-.284-.6-.3-.167-.509-.413.113-.517-.095-.765-.281-.186-.488-.433-.2-.25-.412-.5.15-.548-.058-.8-.379-.1-.587-.352c-.141-.169-.074-.318-.081-.474.094.2.2.383.427.383.172,0,.232-.528.326-.9-.395-.2-.908-.533-1.019-.4-.139.171.02.435.143.661-.237-.17-.847.318-1.045.081s.545-.878.337-1.127-.125-.321-.3-.545c.2-.094.241-.409.508-.409.315,0,.315-.881.63-.881s.314.756.628.756c.13,0,.206.1.273.226a.156.156,0,0,0-.07.046c-.17.209-.061.3-.23.508s.768.969.6,1.179a.077.077,0,0,1-.034.021c.088.437.15,1.016.315,1.016.265,0,.265-1.391.529-1.391s.264,1.2.529,1.2.265-.412.529-.412.264.019.529.019.264.125.529.125.264-.757.529-.757.264.643.529.643.264-.578.529-.578.264-.024.529-.024.264.8.529.8.265-1.014.529-1.014.265,1.478.529,1.478.265-1.011.529-1.011.265.116.53.116.265.864.529.864.265-.3.529-.3.264-.99.529-.99.264.836.529.836.265-.107.529-.107.264.3.529.3.265-.527.529-.527.265-.395.529-.395.265-.394.53-.394.265.27.53.27.264.16.529.16.265.667.529.667.265-.071.529-.071.264-.58.529-.58.265-.262.529-.262c.089,0,.148.153.2.355v18.121c-.015.018-.03.034-.048.034-.173,0-.173-.031-.347-.031s-.173.379-.347.379-.174-1.377-.347-1.377-.173.151-.347.151-.173.614-.347.614-.173-.516-.347-.516-.173.95-.347.95-.174.376-.347.376-.173-1-.347-1-.173-.333-.347-.333-.174.239-.347.239c-.153,0-.171.312-.292.387V94.881h-1.783v10.1s-.005.006-.008.006c-.174,0-.174.053-.348.053s-.174-.321-.348-.321-.174-.694-.348-.694-.174-.472-.348-.472-.174,1.5-.349,1.5-.174-.889-.348-.889-.174.491-.349.491-.174-.435-.349-.435-.174-.835-.349-.835-.174,1.037-.349,1.037-.174-.184-.348-.184-.174-.372-.348-.372-.174.245-.348.245-.174-.445-.348-.445-.174,1.2-.348,1.2-.174-1.18-.348-1.18-.173.664-.347.664-.174.1-.347.1-.173-.8-.347-.8-.173,1.006-.347,1.006-.173.245-.347.245-.173-1.56-.346-1.56-.173,1.656-.347,1.656-.173-1.275-.346-1.275-.173,1.242-.346,1.242-.173-.841-.346-.841-.173.191-.346.191-.173-1.014-.346-1.014-.173.805-.346.805-.173.482-.346.482-.173.441-.346.441a.073.073,0,0,1-.052-.032V99.465h-1.783V104.1c-.077.2-.111.586-.238.586-.172,0-.172-1.121-.346-1.121s-.173.2-.346.2-.173.919-.346.919-.172.353-.346.353-.173-.671-.346-.671-.173-1.13-.346-1.13-.172,1.771-.346,1.771-.173-.222-.346-.222-.173-.949-.346-.949-.172-.421-.346-.421-.173-.073-.346-.073-.173.078-.346.078-.172.073-.346.073-.173.5-.346.5-.173-.285-.346-.285-.173,1.345-.346,1.345-.173-1.756-.346-1.756-.173,1.085-.346,1.085-.173-.345-.346-.345-.173.622-.346.622c-.084,0-.128-.3-.17-.6V94.764A2.78,2.78,0,0,0,101.493,94.823Z" transform="translate(-47.35 -26.135)" fill="#fff"/>
  <path id="Path_41" data-name="Path 41" d="M229.856,111.365a.8.8,0,0,0,.014-.789c-.1-.119-.379.025-.634.13h.026C229.523,110.7,229.75,111.6,229.856,111.365Z" transform="translate(-130.724 -63.031)" fill="#fff"/>
  <path id="Path_42" data-name="Path 42" d="M228.645,110.922c-.215,0-.244-.009-.445-.011a.118.118,0,0,0,.014.056C228.286,111.055,228.458,111,228.645,110.922Z" transform="translate(-130.133 -63.248)" fill="#fff"/>
  <path id="Path_43" data-name="Path 43" d="M147.609,139.2c-.053-.263-.115-.474-.214-.474s-.153.155-.2.355C147.374,139.169,147.53,139.228,147.609,139.2Z" transform="translate(-83.937 -79.108)" fill="#fff"/>
  <path id="Path_44" data-name="Path 44" d="M33.115,94.526V72.156a18.9,18.9,0,0,1,.765,1.821c1.211,3.357,2.231,8.866,2.227,17.464,0,2.37-.076,4.973-.243,7.831a3.438,3.438,0,0,0,3.233,3.633c.068,0,.136.006.2.006a3.439,3.439,0,0,0,3.429-3.237c.174-2.98.255-5.716.255-8.232-.018-12.97-2.09-20.149-4.915-24.466a12.13,12.13,0,0,0-4.59-4.278,8.14,8.14,0,0,0-3.625-.918,5.012,5.012,0,0,0-.608.034l-.009,0H27.773l-1.054,8.239L22.529,65l2.878-3.19H17.574L20.452,65l-4.19,5.049-1.054-8.239H13.743l-.007,0a5.154,5.154,0,0,0-.608-.034A8.152,8.152,0,0,0,9.5,62.7c-2.311,1.145-4.8,3.653-6.547,8.1C1.19,75.254.005,81.7,0,91.441c0,2.516.081,5.253.256,8.233a3.437,3.437,0,0,0,3.428,3.236c.067,0,.136,0,.2-.006a3.437,3.437,0,0,0,3.23-3.633c-.167-2.858-.243-5.462-.243-7.83-.014-10.408,1.5-16.253,2.993-19.3v64.5a5.313,5.313,0,0,0,10.627,0V97.848h1.992v38.793a5.313,5.313,0,0,0,10.627,0V94.526Z" transform="translate(0 -35.229)" fill="#fff"/>
  <path id="Path_45" data-name="Path 45" d="M38.756,41.363a9.666,9.666,0,0,0,7.992-10.925H27.61A9.665,9.665,0,0,0,38.756,41.363Z" transform="translate(-15.688 -17.358)" fill="#fff"/>
  <path id="Path_46" data-name="Path 46" d="M24.757,9.628a1.3,1.3,0,0,0,0,2.593H44.982a1.3,1.3,0,1,0,0-2.593H44.8c-.007-.29-.026-.577-.058-.859a9.935,9.935,0,0,0-4.274-7.092V2.47a1.026,1.026,0,1,1-2.052,0V.6A9.872,9.872,0,0,0,35.895,0V2.47a1.026,1.026,0,1,1-2.052,0V0a9.884,9.884,0,0,0-2.524.6V2.47a1.026,1.026,0,1,1-2.052,0V1.677a9.933,9.933,0,0,0-4.273,7.091c-.031.283-.05.57-.058.859Z" transform="translate(-13.379)" fill="#fff"/>
</svg>
