<svg xmlns="http://www.w3.org/2000/svg" width="57.939" height="57.939" viewBox="0 0 57.939 57.939">
  <g id="icon-tab-1" transform="translate(0 -0.313)">
    <path id="Path_1" data-name="Path 1" d="M28.969,24.61a4.672,4.672,0,1,0,4.672,4.673A4.678,4.678,0,0,0,28.969,24.61Zm0,7.476a2.8,2.8,0,1,1,2.8-2.8A2.807,2.807,0,0,1,28.969,32.086Z" fill="#1da912"/>
    <path id="Path_2" data-name="Path 2" d="M42.987,46.1a2.8,2.8,0,0,0,1.869,2.632v3.835a6.542,6.542,0,0,1-5.4-8.1L37.644,44a8.409,8.409,0,1,0,7.1-6.243l.116.927v2.633l-7.6-10.642a7.821,7.821,0,0,0,0-2.788l9.054-12.677A2.8,2.8,0,0,0,48.422,13.4h3.835A6.546,6.546,0,0,1,45.791,19a6.756,6.756,0,0,1-.819-.05l-.232,1.854a8.2,8.2,0,0,0,1.05.066,8.4,8.4,0,1,0-8.145-6.308l1.81-.466a6.581,6.581,0,0,1-.134-.7H42.39l-10.44,8.031a8.268,8.268,0,0,0-5.959,0L14.907,12.9a2.74,2.74,0,0,0,.045-.44,2.8,2.8,0,0,0-1.869-2.632V6a6.542,6.542,0,0,1,5.4,8.1l1.81.466a8.409,8.409,0,1,0-7.1,6.243l-.116-.927V17.248l7.6,10.642a7.821,7.821,0,0,0,0,2.788L11.63,43.354a2.8,2.8,0,0,0-2.113,1.817H5.682a6.546,6.546,0,0,1,6.467-5.607,6.758,6.758,0,0,1,.819.05L13.2,37.76a8.184,8.184,0,0,0-1.05-.066A8.4,8.4,0,1,0,20.294,44l-1.809.467a6.575,6.575,0,0,1,.134.7H15.55l10.44-8.031a8.272,8.272,0,0,0,5.958,0l11.083,8.525A2.741,2.741,0,0,0,42.987,46.1Zm3.738-6.467a6.533,6.533,0,0,1,0,12.934V48.736a2.787,2.787,0,0,0,0-5.263Zm-.934,5.532a.934.934,0,1,1-.935.935A.936.936,0,0,1,45.791,45.17ZM11.214,18.929A6.533,6.533,0,0,1,11.214,6V9.831a2.787,2.787,0,0,0,0,5.263Zm.934-5.532a.935.935,0,1,1,.934-.934A.936.936,0,0,1,12.148,13.4Zm33.642,0a.935.935,0,1,1,.934-.934A.936.936,0,0,1,45.791,13.4Zm-6.467-1.869a6.533,6.533,0,0,1,12.933,0H48.422a2.787,2.787,0,0,0-5.263,0Zm4.622,3.029a2.784,2.784,0,0,0,.345.265l-7.742,10.84a8.452,8.452,0,0,0-2.78-3.276Zm-30.3.266a2.884,2.884,0,0,0,.345-.265l10.178,7.829a8.452,8.452,0,0,0-2.78,3.276Zm-1.5,30.347a.934.934,0,1,1-.934.935A.936.936,0,0,1,12.148,45.17Zm6.467,1.869a6.533,6.533,0,0,1-12.934,0H9.517a2.787,2.787,0,0,0,5.263,0ZM13.993,44.01a2.793,2.793,0,0,0-.345-.265l7.742-10.839a8.452,8.452,0,0,0,2.78,3.276Zm14.976-8.185a6.542,6.542,0,1,1,6.541-6.542A6.549,6.549,0,0,1,28.969,35.825Zm4.8.355a8.452,8.452,0,0,0,2.78-3.276l7.742,10.84a2.884,2.884,0,0,0-.345.265Z" fill="#1da912"/>
    <path id="Path_3" data-name="Path 3" d="M36.1,15.889a10.282,10.282,0,1,1,9.7,6.853,10.365,10.365,0,0,1-2.571-.323l-.465,1.81a12.139,12.139,0,1,0-8.421-7.717Z" fill="#1da912"/>
    <path id="Path_4" data-name="Path 4" d="M21.844,42.677a10.282,10.282,0,1,1-9.7-6.853,10.365,10.365,0,0,1,2.571.323l.465-1.81a12.139,12.139,0,1,0,8.421,7.717Z" fill="#1da912"/>
    <path id="Path_5" data-name="Path 5" d="M45.791,33.956a12.19,12.19,0,0,0-3.036.383l.465,1.81A10.265,10.265,0,1,1,36.1,42.677l-1.763-.622a12.151,12.151,0,1,0,11.458-8.1Z" fill="#1da912"/>
    <path id="Path_6" data-name="Path 6" d="M12.149,24.611a12.189,12.189,0,0,0,3.036-.383l-.465-1.81a10.265,10.265,0,1,1,7.125-6.529l1.763.622a12.151,12.151,0,1,0-11.458,8.1Z" fill="#1da912"/>
  </g>
</svg>
