<svg xmlns="http://www.w3.org/2000/svg" width="92" height="92" viewBox="0 0 92 92">
  <g id="icon-tab-4" transform="translate(-2 -2)">
    <path id="Path_144" data-name="Path 144" d="M15.069,84h-.138A8,8,0,0,0,7,77a8,8,0,0,0,7,7.931V94h2V84.931A8,8,0,0,0,23,77,8,8,0,0,0,15.069,84Z" fill="#fff"/>
    <path id="Path_145" data-name="Path 145" d="M37.069,84h-.138A8,8,0,0,0,29,77a8,8,0,0,0,7,7.931V94h2V84.931A8,8,0,0,0,45,77,8,8,0,0,0,37.069,84Z" fill="#fff"/>
    <path id="Path_146" data-name="Path 146" d="M58,84.931V94h2V84.931A8,8,0,0,0,67,77a8,8,0,0,0-7.931,7h-.138A8,8,0,0,0,51,77,8,8,0,0,0,58,84.931Z" fill="#fff"/>
    <path id="Path_147" data-name="Path 147" d="M82,94V84.931A8,8,0,0,0,89,77a8,8,0,0,0-7.931,7h-.138A8,8,0,0,0,73,77a8,8,0,0,0,7,7.931V94Z" fill="#fff"/>
    <path id="Path_148" data-name="Path 148" d="M38,12v7H58V12a10,10,0,0,0-20,0Zm9-6V8a3,3,0,0,0-3,3H42A5.006,5.006,0,0,1,47,6Z" fill="#fff"/>
    <path id="Path_149" data-name="Path 149" d="M49,43V37.293h6.824A15.944,15.944,0,0,1,60,48.071V50h2V48.071a17.913,17.913,0,0,0-3.589-10.778H64V28h9.08A7.025,7.025,0,0,1,73,27V24H64V21.293H32V24H23v3a7.026,7.026,0,0,1-.08,1H32v9.293h5.589A17.915,17.915,0,0,0,34,48.071V50h2V48.071a15.944,15.944,0,0,1,4.176-10.778H47V43Zm-6-9.707v-8H53v8Z" fill="#fff"/>
    <path id="Path_150" data-name="Path 150" d="M23.52,15.9a1.084,1.084,0,0,0,0-1.8,6.177,6.177,0,0,0-6.871-.1h-1.3a6.177,6.177,0,0,0-6.871.1,1.084,1.084,0,0,0,0,1.8,6.178,6.178,0,0,0,6.52.307V22H11v5a5,5,0,0,0,4,4.9V42H13v2h6V42H17V31.9A5,5,0,0,0,21,27V22H17V16.207A6.18,6.18,0,0,0,23.52,15.9Z" fill="#fff"/>
    <rect id="Rectangle_13" data-name="Rectangle 13" width="2" height="14" transform="translate(15 47)" fill="#fff"/>
    <path id="Path_151" data-name="Path 151" d="M24,54.979a13.018,13.018,0,0,0-2.587-7.761L20.8,46.4l-1.6,1.2.613.817A11.009,11.009,0,0,1,22,54.979V61h2Z" fill="#fff"/>
    <path id="Path_152" data-name="Path 152" d="M28,59.083,30,58.917,29.553,53.6a13.016,13.016,0,0,0-7.106-10.5l-.9,1.789a11,11,0,0,1,6.008,8.873Z" fill="#fff"/>
    <path id="Path_153" data-name="Path 153" d="M10,54.979a11,11,0,0,1,2.188-6.562L12.8,47.6l-1.6-1.2-.612.817A13.013,13.013,0,0,0,8,54.979V61h2Z" fill="#fff"/>
    <path id="Path_154" data-name="Path 154" d="M2,58.917,4,59.083l.443-5.315A11,11,0,0,1,10.447,44.9l-.9-1.789A13.011,13.011,0,0,0,2.446,53.6Z" fill="#fff"/>
    <rect id="Rectangle_14" data-name="Rectangle 14" width="2" height="2" transform="translate(15 63)" fill="#fff"/>
    <rect id="Rectangle_15" data-name="Rectangle 15" width="2" height="2" transform="translate(22 63)" fill="#fff"/>
    <rect id="Rectangle_16" data-name="Rectangle 16" width="2" height="2" transform="translate(28 62)" fill="#fff"/>
    <rect id="Rectangle_17" data-name="Rectangle 17" width="2" height="2" transform="translate(8 63)" fill="#fff"/>
    <rect id="Rectangle_18" data-name="Rectangle 18" width="2" height="2" transform="translate(2 62)" fill="#fff"/>
    <path id="Path_155" data-name="Path 155" d="M72.48,14.1a1.084,1.084,0,0,0,0,1.8,6.178,6.178,0,0,0,6.52.307V22H75v5a5,5,0,0,0,4,4.9V42H77v2h6V42H81V31.9A5,5,0,0,0,85,27V22H81V16.207a6.176,6.176,0,0,0,6.52-.307,1.084,1.084,0,0,0,0-1.8,6.177,6.177,0,0,0-6.871-.1h-1.3A6.176,6.176,0,0,0,72.48,14.1Z" fill="#fff"/>
    <rect id="Rectangle_19" data-name="Rectangle 19" width="2" height="14" transform="translate(79 47)" fill="#fff"/>
    <path id="Path_156" data-name="Path 156" d="M74,54.979a11.009,11.009,0,0,1,2.187-6.562L76.8,47.6l-1.6-1.2-.613.817A13.018,13.018,0,0,0,72,54.979V61h2Z" fill="#fff"/>
    <path id="Path_157" data-name="Path 157" d="M74.447,44.9l-.895-1.789a13.011,13.011,0,0,0-7.106,10.5L66,58.917,68,59.083l.443-5.315A11,11,0,0,1,74.447,44.9Z" fill="#fff"/>
    <path id="Path_158" data-name="Path 158" d="M88,54.979a13.018,13.018,0,0,0-2.587-7.761L84.8,46.4l-1.6,1.2.613.817A11.009,11.009,0,0,1,86,54.979V61h2Z" fill="#fff"/>
    <path id="Path_159" data-name="Path 159" d="M92,59.083,94,58.917,93.553,53.6a13.016,13.016,0,0,0-7.106-10.5L85.552,44.9a11,11,0,0,1,6.008,8.873Z" fill="#fff"/>
    <rect id="Rectangle_20" data-name="Rectangle 20" width="2" height="2" transform="translate(79 63)" fill="#fff"/>
    <rect id="Rectangle_21" data-name="Rectangle 21" width="2" height="2" transform="translate(72 63)" fill="#fff"/>
    <rect id="Rectangle_22" data-name="Rectangle 22" width="2" height="2" transform="translate(66 62)" fill="#fff"/>
    <rect id="Rectangle_23" data-name="Rectangle 23" width="2" height="2" transform="translate(86 63)" fill="#fff"/>
    <rect id="Rectangle_24" data-name="Rectangle 24" width="2" height="2" transform="translate(92 62)" fill="#fff"/>
  </g>
</svg>
