<svg xmlns="http://www.w3.org/2000/svg" width="296.751" height="243.945" viewBox="0 0 296.751 243.945">
  <g id="_1988483_courier_delivery_deliveryman_logistic_mailman_icon" data-name="1988483_courier_delivery_deliveryman_logistic_mailman_icon" transform="translate(0 0)">
    <path id="Path_56" data-name="Path 56" d="M122.32,66.267c7.032,10.749,11.009,26.492,12.1,47.87a19.085,19.085,0,0,1,24.248,15.323h67.7a3.39,3.39,0,0,0,3.389-3.389V44.916a3.39,3.39,0,0,0-3.389-3.389h-108.1a3.39,3.39,0,0,0-3.389,3.389V57.9A37.587,37.587,0,0,1,122.32,66.267Z" fill="#fff"/>
    <path id="Path_57" data-name="Path 57" d="M259.794,113.358a19.159,19.159,0,0,1,18.879,16.1h11.648a5.1,5.1,0,0,0,5.084-5.084V103a24.356,24.356,0,0,0-2.373-9.577L279.278,67.37a9.291,9.291,0,0,0-7.455-4.495H238.954a5.1,5.1,0,0,0-5.082,5.082v56.419a5.1,5.1,0,0,0,5.082,5.084h1.959A19.16,19.16,0,0,1,259.794,113.358Zm-10.475-9.62h-7v-2.711h7Zm25.463-34,11.863,22.475H252.934V67.957h18.889A4.439,4.439,0,0,1,274.782,69.742Zm-24.558-1.785v24.26H238.955V67.957Z" fill="#fff"/>
    <path id="Path_58" data-name="Path 58" d="M275.55,132.5a15.757,15.757,0,1,0-15.756,15.757A15.757,15.757,0,0,0,275.55,132.5Zm-24.736,0a8.98,8.98,0,1,1,8.98,8.98A8.99,8.99,0,0,1,250.814,132.5Z" fill="#fff"/>
    <path id="Path_59" data-name="Path 59" d="M139.789,123.524a8.98,8.98,0,1,1-5.338,16.183c-.086,2.074-.185,4.167-.309,6.3-.022.389-.069.771-.123,1.15a15.759,15.759,0,1,0,.559-29.507q.129,3.617.152,7.443A8.929,8.929,0,0,1,139.789,123.524Z" fill="#fff"/>
    <path id="Path_60" data-name="Path 60" d="M132.39,151.99H296.751v-2.5H133.476A13.924,13.924,0,0,1,132.39,151.99Z" fill="#fff"/>
    <path id="Path_61" data-name="Path 61" d="M16.1.008A7.994,7.994,0,0,0,7.9,6.5H23.6A8,8,0,0,0,16.1.008Z" fill="#fff"/>
    <path id="Path_62" data-name="Path 62" d="M51.692,114.644V231.582a12.364,12.364,0,0,0,24.728,0V141.311h4.635v90.271a12.364,12.364,0,0,0,24.728,0V81.625a43.49,43.49,0,0,1,1.781,4.238c2.818,7.811,5.188,20.629,5.18,40.639,0,5.514-.177,11.571-.565,18.223a8,8,0,0,0,7.522,8.451c.159.009.317.014.475.014a8,8,0,0,0,7.977-7.534c.4-6.934.591-13.3.593-19.153-.042-30.183-4.863-46.887-11.435-56.933a28.227,28.227,0,0,0-10.679-9.954,19,19,0,0,0-8.195-2.134c-.127-.006-.252-.019-.38-.019h-4.9l-2.251,17.6-9.75-11.75,5.278-5.849H71.043l5.278,5.849-9.75,11.75-2.251-17.6H61.791a7.894,7.894,0,0,0-1.121-.183v0L49.75,56.36v1.891H5.543l-.12,2.734a8,8,0,0,0,7.322,8.322L45.69,72.076l6,.5v42.063Z" fill="#fff"/>
    <path id="Path_63" data-name="Path 63" d="M82.407,51.461a22.506,22.506,0,0,0,18.621-19.166,62.521,62.521,0,0,1-6.371-.664c-11.52-1.791-20.4-6.3-20.146-10.17,1.524,3.46,10.442,6.119,21.247,6.119,8.154,0,15.248-1.514,18.893-3.743,1.663-1.017,2.609-2.183,2.609-3.423,0-3.959-9.627-7.168-21.5-7.168-.406,0-.8.013-1.2.021a22.494,22.494,0,1,0-15.818,38.5A22.653,22.653,0,0,0,82.407,51.461Z" fill="#fff"/>
    <path id="Path_64" data-name="Path 64" d="M47.75,56.25V8.5H28.292V24.834H19.459V8.5H0V56.25Z" fill="#fff"/>
  </g>
</svg>
