<svg xmlns="http://www.w3.org/2000/svg" width="40.21" height="40.212" viewBox="0 0 40.21 40.212">
  <path id="_1243705_target_dartboard_goal_search_seo_icon" data-name="1243705_target_dartboard_goal_search_seo_icon" d="M31.133,17.173a.954.954,0,0,0-.543,1.357,13.373,13.373,0,0,1,.95,5.156A14.653,14.653,0,1,1,16.888,9.033a18.068,18.068,0,0,1,4.613.678.988.988,0,1,0,.543-1.9A16.4,16.4,0,0,0,16.888,7,16.688,16.688,0,1,0,33.575,23.685a17.871,17.871,0,0,0-1.085-5.97A1.2,1.2,0,0,0,31.133,17.173Zm-14.246,3.12a1.07,1.07,0,0,0,1.085-1.085,1,1,0,0,0-1.085-1.085,5.427,5.427,0,1,0,5.427,5.427,1.07,1.07,0,0,0-1.085-1.085c-.678,0-.95.678-.95,1.221a3.392,3.392,0,1,1-3.392-3.392ZM21.907,15a.991.991,0,0,0-.543-1.357,10.223,10.223,0,0,0-4.477-.95A11.06,11.06,0,0,0,5.763,23.685a11.125,11.125,0,0,0,22.25,0,9.83,9.83,0,0,0-.95-4.477.991.991,0,0,0-1.357-.543,1.111,1.111,0,0,0-.543,1.357,8.955,8.955,0,0,1,.814,3.663,9.09,9.09,0,1,1-9.09-9.09,8.078,8.078,0,0,1,3.663.814A1.055,1.055,0,0,0,21.907,15ZM40.359,8.219a.86.86,0,0,0-.814-.678l-5.563-.95-.95-5.563a.86.86,0,0,0-.678-.814,1.055,1.055,0,0,0-1.085.271L24.621,7.133a.839.839,0,0,0-.271.95l1.085,5.7-8.547,8.547h-.136a1.492,1.492,0,1,0,1.492,1.492h0l8.683-8.683,5.563,1.085h.136a1.036,1.036,0,0,0,.678-.271L39.952,9.3A.909.909,0,0,0,40.359,8.219ZM26.52,8.083,31.4,3.2,32.083,7l-4.749,4.749Zm5.97,5.97-3.663-.678,4.749-4.749,3.663.678Z" transform="translate(-0.2 -0.161)" fill="#1da912"/>
</svg>
