<svg xmlns="http://www.w3.org/2000/svg" width="92.416" height="153.196" viewBox="0 0 92.416 153.196">
  <g id="photographer" transform="translate(0.001 0)">
    <path id="Path_52" data-name="Path 52" d="M48.716,158.834l2.968-39.246a8.235,8.235,0,0,0-.192-2.494L45.359,90.8c-.005-.585-.025-1.207-.065-1.881a51.722,51.722,0,0,1-.337-9c-.067-.119-.144-.231-.2-.355L33.21,55.568a6.8,6.8,0,0,1,6.119-9.741,6.831,6.831,0,0,1,6.125,3.849l3.121,6.487c.071-.356.144-.716.211-1.061.022-.076.04-.152.061-.228a39.481,39.481,0,0,1,1.859,4.361c1.114,2.94,2.249,5.928,4.783,8.73l3.547-1.156c-2.958-2.712-4.086-5.682-5.246-8.744a27.493,27.493,0,0,0-4.4-8.328,15.8,15.8,0,0,0-.5-3.253c.919.98,1.8,2.086,2.751,3.276,3.109,3.9,6.761,8.478,14.176,11.433l5.324-1.741c-9.486-2.423-13.4-7.329-16.921-11.747-3.081-3.868-5.991-7.521-11.852-8.5-.056-.009-.11-.007-.166-.011a11.537,11.537,0,0,0-2.814-.229C28.022,39.031,5.7,41.69,5.7,41.69S-.744,44.229.07,52.39c2.906-.925,9.864-2.826,16.345-2.22C10.86,51.386,4.164,55.065.674,57.144,2.12,67.714,5.052,86.263,5.052,86.263a6.139,6.139,0,0,0,6.9,3.838c2.485-.365,6.438-1.21,9.945-2.006,1.4,6.006,4.592,8.717,8.2,9.9l5.041,21.615L32.273,157.59a8.245,8.245,0,0,0,7.6,8.843c.212.015.422.024.631.024A8.244,8.244,0,0,0,48.716,158.834Z" transform="translate(0 -13.26)" fill="#fff"/>
    <path id="Path_53" data-name="Path 53" d="M108.643,25.374c1.5-2.136-2.476-7.519-8.884-12.022l-.075-.051c-.741-.518-1.481-1-2.213-1.448A14.833,14.833,0,1,0,93.3,25.475c.291-.283.556-.581.819-.881-.642-.547-1.286-1.124-1.924-1.739-5.536-5.335-8.616-11.137-7.014-13.128-.488,2.445,3.315,7.262,9.145,11.36,4.4,3.093,8.8,4.966,11.614,5.146A2.924,2.924,0,0,0,108.643,25.374Z" transform="translate(-23.183 0)" fill="#fff"/>
    <path id="Path_54" data-name="Path 54" d="M97.028,72.837A2.1,2.1,0,0,0,95.6,75.112l9.137-2.977a6.793,6.793,0,1,1,4.21,12.918l-8.995,2.931a2.1,2.1,0,0,0,2.225.6l3.357-1.1.506,1.547-.646,1.651,5.025,15.372,13.95-4.56-5.025-15.372-1.5-.95-.506-1.547,1.763-.576a2.09,2.09,0,0,0,1-.7,5.8,5.8,0,0,1,2.344,2.692.568.568,0,0,0,.695.3l1.174-.384a.57.57,0,0,0,.39-.494l.239-2.9a.57.57,0,0,0-.026-.224l-3.852-11.782a.57.57,0,0,0-.532-.392l-3.779-.059-.153-.468a2.1,2.1,0,0,0-2.652-1.345Zm21.686-1.813,1.563,4.781-1.189.388-1.563-4.781Zm3.615,28.711.273.836-5.3,1.733-.273-.836Zm-6.3,2.058.273.836-.745.243-.273-.836Z" transform="translate(-32.537 -22.875)" fill="#fff"/>
    <path id="Path_55" data-name="Path 55" d="M93.515,78.326a5.277,5.277,0,0,0-3.27-10.034L71.2,74.5,61.663,54.663a5.277,5.277,0,0,0-9.51,4.576L63.7,83.232a5.273,5.273,0,0,0,6.39,2.729Z" transform="translate(-17.575 -17.59)" fill="#fff"/>
  </g>
</svg>
